<svg xmlns="http://www.w3.org/2000/svg" width="1920" height="1080"><path d="M694,1226L231,1282L973,1259Z" fill="#b49295" stroke="#b49295" stroke-width="1.51"/><path d="M670,-199L874,-155L1171,-154Z" fill="#dc917a" stroke="#dc917a" stroke-width="1.51"/><path d="M973,1259L231,1282L1235,1268Z" fill="#b39ea6" stroke="#b39ea6" stroke-width="1.51"/><path d="M670,-199L1171,-154L1508,-205Z" fill="#d29073" stroke="#d29073" stroke-width="1.51"/><path d="M1564,1232L1235,1268L1820,1260Z" fill="#7996a9" stroke="#7996a9" stroke-width="1.51"/><path d="M2065,67L2073,190L2119,318Z" fill="#b57a84" stroke="#b57a84" stroke-width="1.51"/><path d="M2008,334L2078,440L2119,318Z" fill="#b39a9b" stroke="#b39a9b" stroke-width="1.51"/><path d="M2073,190L2008,334L2119,318Z" fill="#b58d8f" stroke="#b58d8f" stroke-width="1.51"/><path d="M2087,926L1944,978L2120,1072Z" fill="#6293aa" stroke="#6293aa" stroke-width="1.51"/><path d="M1929,1137L2107,1215L2120,1072Z" fill="#4878b5" stroke="#4878b5" stroke-width="1.51"/><path d="M2087,831L2087,926L2120,1072Z" fill="#7192a8" stroke="#7192a8" stroke-width="1.51"/><path d="M1792,-185L1959,-174L2126,-179Z" fill="#8d567c" stroke="#8d567c" stroke-width="1.51"/><path d="M1508,-205L1792,-185L2126,-179Z" fill="#916879" stroke="#916879" stroke-width="1.51"/><path d="M2065,67L2119,318L2126,-179Z" fill="#b26178" stroke="#b26178" stroke-width="1.51"/><path d="M2057,-72L2065,67L2126,-179Z" fill="#a4537c" stroke="#a4537c" stroke-width="1.51"/><path d="M2078,440L2006,592L2133,648Z" fill="#afacb5" stroke="#afacb5" stroke-width="1.51"/><path d="M2006,592L2069,694L2133,648Z" fill="#a9aaab" stroke="#a9aaab" stroke-width="1.51"/><path d="M2069,694L2087,831L2133,648Z" fill="#a0a2a5" stroke="#a0a2a5" stroke-width="1.51"/><path d="M2119,318L2078,440L2133,648Z" fill="#b3a0a9" stroke="#b3a0a9" stroke-width="1.51"/><path d="M2087,831L2120,1072L2133,648Z" fill="#8798a7" stroke="#8798a7" stroke-width="1.51"/><path d="M2126,-179L2119,318L2133,648Z" fill="#b6828a" stroke="#b6828a" stroke-width="1.51"/><path d="M1959,-174L2057,-72L2126,-179Z" fill="#954e79" stroke="#954e79" stroke-width="1.51"/><path d="M1944,978L1929,1137L2120,1072Z" fill="#518db2" stroke="#518db2" stroke-width="1.51"/><path d="M2003,425L2006,592L2078,440Z" fill="#afadb0" stroke="#afadb0" stroke-width="1.51"/><path d="M2008,334L2003,425L2078,440Z" fill="#b1a4a2" stroke="#b1a4a2" stroke-width="1.51"/><path d="M2069,694L1973,700L2087,831Z" fill="#9aa8a8" stroke="#9aa8a8" stroke-width="1.51"/><path d="M1973,700L1953,827L2087,831Z" fill="#8faaab" stroke="#8faaab" stroke-width="1.51"/><path d="M1929,1137L1948,1249L2107,1215Z" fill="#4b73b2" stroke="#4b73b2" stroke-width="1.51"/><path d="M2057,-72L1940,-8L2065,67Z" fill="#aa637e" stroke="#aa637e" stroke-width="1.51"/><path d="M1938,254L2008,334L2073,190Z" fill="#b49290" stroke="#b49290" stroke-width="1.51"/><path d="M2065,67L1957,71L2073,190Z" fill="#b4727d" stroke="#b4727d" stroke-width="1.51"/><path d="M2087,831L1953,827L2087,926Z" fill="#809fab" stroke="#809fab" stroke-width="1.51"/><path d="M1953,827L1944,978L2087,926Z" fill="#71a1ad" stroke="#71a1ad" stroke-width="1.51"/><path d="M1940,-8L1957,71L2065,67Z" fill="#ae6e7e" stroke="#ae6e7e" stroke-width="1.51"/><path d="M2006,592L1973,700L2069,694Z" fill="#a5b0ab" stroke="#a5b0ab" stroke-width="1.51"/><path d="M1957,71L1938,254L2073,190Z" fill="#b48486" stroke="#b48486" stroke-width="1.51"/><path d="M1959,-174L1940,-8L2057,-72Z" fill="#9f5d7f" stroke="#9f5d7f" stroke-width="1.51"/><path d="M1465,1223L1235,1268L1564,1232Z" fill="#899ea9" stroke="#899ea9" stroke-width="1.51"/><path d="M1864,138L1938,254L1957,71Z" fill="#b38988" stroke="#b38988" stroke-width="1.51"/><path d="M1784,519L1890,615L2003,425Z" fill="#aac2bb" stroke="#aac2bb" stroke-width="1.51"/><path d="M2003,425L1890,615L2006,592Z" fill="#abbabd" stroke="#abbabd" stroke-width="1.51"/><path d="M1890,615L1973,700L2006,592Z" fill="#a4b8b2" stroke="#a4b8b2" stroke-width="1.51"/><path d="M1862,296L2003,425L2008,334Z" fill="#b0a69f" stroke="#b0a69f" stroke-width="1.51"/><path d="M1938,254L1862,296L2008,334Z" fill="#b1a098" stroke="#b1a098" stroke-width="1.51"/><path d="M1832,-68L1940,-8L1959,-174Z" fill="#9e6883" stroke="#9e6883" stroke-width="1.51"/><path d="M1862,296L1784,519L2003,425Z" fill="#aeb8aa" stroke="#aeb8aa" stroke-width="1.51"/><path d="M1736,400L1784,519L1862,296Z" fill="#b3c3a3" stroke="#b3c3a3" stroke-width="1.51"/><path d="M1838,1126L1929,1137L1944,978Z" fill="#4394b8" stroke="#4394b8" stroke-width="1.51"/><path d="M1810,996L1838,1126L1944,978Z" fill="#51a2b3" stroke="#51a2b3" stroke-width="1.51"/><path d="M1785,886L1944,978L1953,827Z" fill="#6fafb2" stroke="#6fafb2" stroke-width="1.51"/><path d="M1849,760L1953,827L1973,700Z" fill="#8fb5af" stroke="#8fb5af" stroke-width="1.51"/><path d="M1890,615L1849,760L1973,700Z" fill="#9dbdad" stroke="#9dbdad" stroke-width="1.51"/><path d="M1785,886L1810,996L1944,978Z" fill="#63b0af" stroke="#63b0af" stroke-width="1.51"/><path d="M1929,1137L1820,1260L1948,1249Z" fill="#467cb6" stroke="#467cb6" stroke-width="1.51"/><path d="M1940,-8L1864,138L1957,71Z" fill="#b07a81" stroke="#b07a81" stroke-width="1.51"/><path d="M1792,-185L1832,-68L1959,-174Z" fill="#97677e" stroke="#97677e" stroke-width="1.51"/><path d="M1838,1126L1820,1260L1929,1137Z" fill="#4387b8" stroke="#4387b8" stroke-width="1.51"/><path d="M1849,760L1785,886L1953,827Z" fill="#83b8af" stroke="#83b8af" stroke-width="1.51"/><path d="M1864,138L1804,186L1938,254Z" fill="#b5978a" stroke="#b5978a" stroke-width="1.51"/><path d="M1767,89L1864,138L1940,-8Z" fill="#b5837f" stroke="#b5837f" stroke-width="1.51"/><path d="M1804,186L1862,296L1938,254Z" fill="#b4a190" stroke="#b4a190" stroke-width="1.51"/><path d="M1832,-68L1767,89L1940,-8Z" fill="#ad7c80" stroke="#ad7c80" stroke-width="1.51"/><path d="M1508,-205L1728,-159L1792,-185Z" fill="#9c7a72" stroke="#9c7a72" stroke-width="1.51"/><path d="M1735,1213L1564,1232L1820,1260Z" fill="#608fab" stroke="#608fab" stroke-width="1.51"/><path d="M1712,614L1849,760L1890,615Z" fill="#a6c9ab" stroke="#a6c9ab" stroke-width="1.51"/><path d="M1784,519L1712,614L1890,615Z" fill="#adcfb4" stroke="#adcfb4" stroke-width="1.51"/><path d="M1735,1213L1820,1260L1838,1126Z" fill="#518ab2" stroke="#518ab2" stroke-width="1.51"/><path d="M1712,614L1692,759L1849,760Z" fill="#a3cfa5" stroke="#a3cfa5" stroke-width="1.51"/><path d="M1767,89L1804,186L1864,138Z" fill="#b99581" stroke="#b99581" stroke-width="1.51"/><path d="M1804,186L1671,231L1862,296Z" fill="#b9ab8a" stroke="#b9ab8a" stroke-width="1.51"/><path d="M1671,231L1736,400L1862,296Z" fill="#b9ba93" stroke="#b9ba93" stroke-width="1.51"/><path d="M1673,-42L1767,89L1832,-68Z" fill="#b2867b" stroke="#b2867b" stroke-width="1.51"/><path d="M1792,-185L1728,-159L1832,-68Z" fill="#9d727a" stroke="#9d727a" stroke-width="1.51"/><path d="M1810,996L1654,1131L1838,1126Z" fill="#52a3b2" stroke="#52a3b2" stroke-width="1.51"/><path d="M1690,809L1785,886L1849,760Z" fill="#8ac4aa" stroke="#8ac4aa" stroke-width="1.51"/><path d="M1692,759L1690,809L1849,760Z" fill="#95cba7" stroke="#95cba7" stroke-width="1.51"/><path d="M1654,1131L1735,1213L1838,1126Z" fill="#4f99b4" stroke="#4f99b4" stroke-width="1.51"/><path d="M1736,400L1719,499L1784,519Z" fill="#b5d0ab" stroke="#b5d0ab" stroke-width="1.51"/><path d="M1728,-159L1673,-42L1832,-68Z" fill="#a97d7b" stroke="#a97d7b" stroke-width="1.51"/><path d="M1785,886L1660,932L1810,996Z" fill="#6ebcaa" stroke="#6ebcaa" stroke-width="1.51"/><path d="M1660,932L1654,1131L1810,996Z" fill="#60b7aa" stroke="#60b7aa" stroke-width="1.51"/><path d="M1767,89L1671,231L1804,186Z" fill="#bda280" stroke="#bda280" stroke-width="1.51"/><path d="M1625,149L1671,231L1767,89Z" fill="#c0a87c" stroke="#c0a87c" stroke-width="1.51"/><path d="M1719,499L1712,614L1784,519Z" fill="#b3d8b5" stroke="#b3d8b5" stroke-width="1.51"/><path d="M1586,1060L1654,1131L1660,932Z" fill="#67baaa" stroke="#67baaa" stroke-width="1.51"/><path d="M1690,809L1660,932L1785,886Z" fill="#80c7a7" stroke="#80c7a7" stroke-width="1.51"/><path d="M1671,231L1603,372L1736,400Z" fill="#bdc991" stroke="#bdc991" stroke-width="1.51"/><path d="M1673,-42L1625,149L1767,89Z" fill="#be9875" stroke="#be9875" stroke-width="1.51"/><path d="M1625,247L1603,372L1671,231Z" fill="#c3c38a" stroke="#c3c38a" stroke-width="1.51"/><path d="M1600,690L1692,759L1712,614Z" fill="#acdca0" stroke="#acdca0" stroke-width="1.51"/><path d="M1508,-205L1553,-132L1728,-159Z" fill="#a78073" stroke="#a78073" stroke-width="1.51"/><path d="M1603,372L1719,499L1736,400Z" fill="#bad3a0" stroke="#bad3a0" stroke-width="1.51"/><path d="M1603,372L1563,425L1719,499Z" fill="#c0d8a0" stroke="#c0d8a0" stroke-width="1.51"/><path d="M1654,1131L1564,1232L1735,1213Z" fill="#609cad" stroke="#609cad" stroke-width="1.51"/><path d="M1527,632L1712,614L1719,499Z" fill="#b7e0ad" stroke="#b7e0ad" stroke-width="1.51"/><path d="M1553,-132L1673,-42L1728,-159Z" fill="#ab8576" stroke="#ab8576" stroke-width="1.51"/><path d="M1563,425L1527,632L1719,499Z" fill="#c1e3af" stroke="#c1e3af" stroke-width="1.51"/><path d="M1583,882L1660,932L1690,809Z" fill="#87cea5" stroke="#87cea5" stroke-width="1.51"/><path d="M1527,632L1600,690L1712,614Z" fill="#b7e0a5" stroke="#b7e0a5" stroke-width="1.51"/><path d="M1534,-67L1625,149L1673,-42Z" fill="#c09776" stroke="#c09776" stroke-width="1.51"/><path d="M1600,690L1583,882L1690,809Z" fill="#9cd5a3" stroke="#9cd5a3" stroke-width="1.51"/><path d="M1600,690L1690,809L1692,759Z" fill="#a0d7a1" stroke="#a0d7a1" stroke-width="1.51"/><path d="M1539,953L1586,1060L1660,932Z" fill="#75c7a5" stroke="#75c7a5" stroke-width="1.51"/><path d="M1625,149L1625,247L1671,231Z" fill="#c4b680" stroke="#c4b680" stroke-width="1.51"/><path d="M1553,-132L1534,-67L1673,-42Z" fill="#b88c77" stroke="#b88c77" stroke-width="1.51"/><path d="M1583,882L1539,953L1660,932Z" fill="#83cca5" stroke="#83cca5" stroke-width="1.51"/><path d="M1534,-67L1410,126L1625,149Z" fill="#cfa373" stroke="#cfa373" stroke-width="1.51"/><path d="M1586,1060L1498,1159L1654,1131Z" fill="#67aeb0" stroke="#67aeb0" stroke-width="1.51"/><path d="M1498,1159L1564,1232L1654,1131Z" fill="#6ba3af" stroke="#6ba3af" stroke-width="1.51"/><path d="M1418,-18L1410,126L1534,-67Z" fill="#d19f75" stroke="#d19f75" stroke-width="1.51"/><path d="M1430,725L1583,882L1600,690Z" fill="#addda2" stroke="#addda2" stroke-width="1.51"/><path d="M1410,126L1489,244L1625,149Z" fill="#d3b67b" stroke="#d3b67b" stroke-width="1.51"/><path d="M1625,149L1489,244L1625,247Z" fill="#cbba80" stroke="#cbba80" stroke-width="1.51"/><path d="M1489,244L1603,372L1625,247Z" fill="#cac78a" stroke="#cac78a" stroke-width="1.51"/><path d="M1171,-154L1328,-125L1508,-205Z" fill="#c48d71" stroke="#c48d71" stroke-width="1.51"/><path d="M1406,481L1527,632L1563,425Z" fill="#cee8ad" stroke="#cee8ad" stroke-width="1.51"/><path d="M1430,725L1412,890L1583,882Z" fill="#a7dba4" stroke="#a7dba4" stroke-width="1.51"/><path d="M1527,632L1430,725L1600,690Z" fill="#c0e49f" stroke="#c0e49f" stroke-width="1.51"/><path d="M1468,365L1563,425L1603,372Z" fill="#cad898" stroke="#cad898" stroke-width="1.51"/><path d="M1489,244L1468,365L1603,372Z" fill="#cfd08f" stroke="#cfd08f" stroke-width="1.51"/><path d="M1539,953L1419,998L1586,1060Z" fill="#7ec8a6" stroke="#7ec8a6" stroke-width="1.51"/><path d="M1419,998L1498,1159L1586,1060Z" fill="#79bbac" stroke="#79bbac" stroke-width="1.51"/><path d="M1412,890L1539,953L1583,882Z" fill="#93d3a5" stroke="#93d3a5" stroke-width="1.51"/><path d="M1468,365L1406,481L1563,425Z" fill="#d2e09e" stroke="#d2e09e" stroke-width="1.51"/><path d="M1498,1159L1465,1223L1564,1232Z" fill="#78a1ac" stroke="#78a1ac" stroke-width="1.51"/><path d="M1419,998L1387,1033L1498,1159Z" fill="#84c0ab" stroke="#84c0ab" stroke-width="1.51"/><path d="M1406,481L1409,641L1527,632Z" fill="#d1ecac" stroke="#d1ecac" stroke-width="1.51"/><path d="M1508,-205L1534,-67L1553,-132Z" fill="#b48775" stroke="#b48775" stroke-width="1.51"/><path d="M1082,1244L973,1259L1235,1268Z" fill="#aba7ac" stroke="#aba7ac" stroke-width="1.51"/><path d="M1328,-125L1418,-18L1508,-205Z" fill="#c38f75" stroke="#c38f75" stroke-width="1.51"/><path d="M1508,-205L1418,-18L1534,-67Z" fill="#bf8f76" stroke="#bf8f76" stroke-width="1.51"/><path d="M1412,890L1419,998L1539,953Z" fill="#91d2a5" stroke="#91d2a5" stroke-width="1.51"/><path d="M1409,641L1430,725L1527,632Z" fill="#c9e9a1" stroke="#c9e9a1" stroke-width="1.51"/><path d="M1406,481L1358,579L1409,641Z" fill="#d9efad" stroke="#d9efad" stroke-width="1.51"/><path d="M1377,264L1468,365L1489,244Z" fill="#d8ce8a" stroke="#d8ce8a" stroke-width="1.51"/><path d="M1387,1033L1368,1173L1498,1159Z" fill="#80b6b0" stroke="#80b6b0" stroke-width="1.51"/><path d="M1410,126L1377,264L1489,244Z" fill="#dcc27f" stroke="#dcc27f" stroke-width="1.51"/><path d="M1368,1173L1465,1223L1498,1159Z" fill="#80a8ae" stroke="#80a8ae" stroke-width="1.51"/><path d="M1326,818L1412,890L1430,725Z" fill="#b7e2a2" stroke="#b7e2a2" stroke-width="1.51"/><path d="M1368,1173L1235,1268L1465,1223Z" fill="#8fa5a9" stroke="#8fa5a9" stroke-width="1.51"/><path d="M1323,784L1326,818L1430,725Z" fill="#c2e6a0" stroke="#c2e6a0" stroke-width="1.51"/><path d="M1353,357L1406,481L1468,365Z" fill="#dae199" stroke="#dae199" stroke-width="1.51"/><path d="M1377,264L1353,357L1468,365Z" fill="#dcd78e" stroke="#dcd78e" stroke-width="1.51"/><path d="M1318,1089L1368,1173L1387,1033Z" fill="#8cbdad" stroke="#8cbdad" stroke-width="1.51"/><path d="M1353,357L1322,446L1406,481Z" fill="#e0e79c" stroke="#e0e79c" stroke-width="1.51"/><path d="M1260,146L1377,264L1410,126Z" fill="#e4bf79" stroke="#e4bf79" stroke-width="1.51"/><path d="M1308,51L1410,126L1418,-18Z" fill="#dda772" stroke="#dda772" stroke-width="1.51"/><path d="M1412,890L1255,977L1419,998Z" fill="#9dd6a3" stroke="#9dd6a3" stroke-width="1.51"/><path d="M1409,641L1323,784L1430,725Z" fill="#cae99e" stroke="#cae99e" stroke-width="1.51"/><path d="M1250,693L1323,784L1409,641Z" fill="#d4ed9c" stroke="#d4ed9c" stroke-width="1.51"/><path d="M1328,-125L1294,-5L1418,-18Z" fill="#d69b75" stroke="#d69b75" stroke-width="1.51"/><path d="M1294,-5L1308,51L1418,-18Z" fill="#dca473" stroke="#dca473" stroke-width="1.51"/><path d="M1255,977L1387,1033L1419,998Z" fill="#95d1a4" stroke="#95d1a4" stroke-width="1.51"/><path d="M1322,446L1358,579L1406,481Z" fill="#dfeea9" stroke="#dfeea9" stroke-width="1.51"/><path d="M1326,818L1255,977L1412,890Z" fill="#aedda2" stroke="#aedda2" stroke-width="1.51"/><path d="M1358,579L1250,693L1409,641Z" fill="#daf0a3" stroke="#daf0a3" stroke-width="1.51"/><path d="M1308,51L1260,146L1410,126Z" fill="#e6b271" stroke="#e6b271" stroke-width="1.51"/><path d="M1255,977L1318,1089L1387,1033Z" fill="#97cda6" stroke="#97cda6" stroke-width="1.51"/><path d="M1222,850L1255,977L1326,818Z" fill="#b8e1a0" stroke="#b8e1a0" stroke-width="1.51"/><path d="M1322,446L1255,460L1358,579Z" fill="#e5f0a6" stroke="#e5f0a6" stroke-width="1.51"/><path d="M1209,315L1353,357L1377,264Z" fill="#e7d889" stroke="#e7d889" stroke-width="1.51"/><path d="M1260,146L1209,315L1377,264Z" fill="#ebce7f" stroke="#ebce7f" stroke-width="1.51"/><path d="M857,1229L694,1226L973,1259Z" fill="#b1a6ab" stroke="#b1a6ab" stroke-width="1.51"/><path d="M874,-155L1096,-129L1171,-154Z" fill="#dc977a" stroke="#dc977a" stroke-width="1.51"/><path d="M1248,-42L1294,-5L1328,-125Z" fill="#dc9d74" stroke="#dc9d74" stroke-width="1.51"/><path d="M1211,600L1250,693L1358,579Z" fill="#e3f3a2" stroke="#e3f3a2" stroke-width="1.51"/><path d="M1318,1089L1234,1117L1368,1173Z" fill="#90baaf" stroke="#90baaf" stroke-width="1.51"/><path d="M1234,1117L1235,1268L1368,1173Z" fill="#97b0ab" stroke="#97b0ab" stroke-width="1.51"/><path d="M1255,460L1211,600L1358,579Z" fill="#e9f6ac" stroke="#e9f6ac" stroke-width="1.51"/><path d="M1255,460L1322,446L1353,357Z" fill="#e6e89a" stroke="#e6e89a" stroke-width="1.51"/><path d="M1209,315L1255,460L1353,357Z" fill="#eae591" stroke="#eae591" stroke-width="1.51"/><path d="M1169,179L1209,315L1260,146Z" fill="#f3cc79" stroke="#f3cc79" stroke-width="1.51"/><path d="M1255,977L1234,1117L1318,1089Z" fill="#9cc9a8" stroke="#9cc9a8" stroke-width="1.51"/><path d="M1171,-154L1248,-42L1328,-125Z" fill="#d79872" stroke="#d79872" stroke-width="1.51"/><path d="M1323,784L1222,850L1326,818Z" fill="#c2e6a0" stroke="#c2e6a0" stroke-width="1.51"/><path d="M1250,693L1222,850L1323,784Z" fill="#ceea9e" stroke="#ceea9e" stroke-width="1.51"/><path d="M1115,78L1260,146L1308,51Z" fill="#f1b36d" stroke="#f1b36d" stroke-width="1.51"/><path d="M1294,-5L1248,-42L1308,51Z" fill="#e2a572" stroke="#e2a572" stroke-width="1.51"/><path d="M1248,-42L1115,78L1308,51Z" fill="#ebab6f" stroke="#ebab6f" stroke-width="1.51"/><path d="M1102,1109L1082,1244L1234,1117Z" fill="#a2bab1" stroke="#a2bab1" stroke-width="1.51"/><path d="M1234,1117L1082,1244L1235,1268Z" fill="#a4afa8" stroke="#a4afa8" stroke-width="1.51"/><path d="M1089,-39L1115,78L1248,-42Z" fill="#eda974" stroke="#eda974" stroke-width="1.51"/><path d="M1049,798L1222,850L1250,693Z" fill="#d6ef9e" stroke="#d6ef9e" stroke-width="1.51"/><path d="M1049,704L1049,798L1250,693Z" fill="#e3f3a0" stroke="#e3f3a0" stroke-width="1.51"/><path d="M1222,850L1121,936L1255,977Z" fill="#b9e19f" stroke="#b9e19f" stroke-width="1.51"/><path d="M1102,1109L1234,1117L1255,977Z" fill="#a5cba7" stroke="#a5cba7" stroke-width="1.51"/><path d="M1121,936L1102,1109L1255,977Z" fill="#acd9a4" stroke="#acd9a4" stroke-width="1.51"/><path d="M1209,315L1091,475L1255,460Z" fill="#f3ee97" stroke="#f3ee97" stroke-width="1.51"/><path d="M1132,554L1211,600L1255,460Z" fill="#f3faab" stroke="#f3faab" stroke-width="1.51"/><path d="M1115,78L1169,179L1260,146Z" fill="#f5bd72" stroke="#f5bd72" stroke-width="1.51"/><path d="M1091,475L1132,554L1255,460Z" fill="#f5f7a7" stroke="#f5f7a7" stroke-width="1.51"/><path d="M1171,-154L1089,-39L1248,-42Z" fill="#e39e73" stroke="#e39e73" stroke-width="1.51"/><path d="M1211,600L1049,704L1250,693Z" fill="#e9f69d" stroke="#e9f69d" stroke-width="1.51"/><path d="M1077,304L1091,475L1209,315Z" fill="#f7e894" stroke="#f7e894" stroke-width="1.51"/><path d="M1096,-129L1089,-39L1171,-154Z" fill="#e09b76" stroke="#e09b76" stroke-width="1.51"/><path d="M1169,179L1077,304L1209,315Z" fill="#f7d784" stroke="#f7d784" stroke-width="1.51"/><path d="M1132,554L1049,704L1211,600Z" fill="#f0f9a7" stroke="#f0f9a7" stroke-width="1.51"/><path d="M1049,798L1121,936L1222,850Z" fill="#c8e8a4" stroke="#c8e8a4" stroke-width="1.51"/><path d="M874,-155L1011,-104L1096,-129Z" fill="#e29a7e" stroke="#e29a7e" stroke-width="1.51"/><path d="M1115,78L1075,177L1169,179Z" fill="#f8c078" stroke="#f8c078" stroke-width="1.51"/><path d="M1075,177L1077,304L1169,179Z" fill="#f9d081" stroke="#f9d081" stroke-width="1.51"/><path d="M1077,304L1003,337L1091,475Z" fill="#faeb9a" stroke="#faeb9a" stroke-width="1.51"/><path d="M1089,-39L984,50L1115,78Z" fill="#f5af79" stroke="#f5af79" stroke-width="1.51"/><path d="M909,955L1102,1109L1121,936Z" fill="#b2dcac" stroke="#b2dcac" stroke-width="1.51"/><path d="M993,883L909,955L1121,936Z" fill="#c2e6ae" stroke="#c2e6ae" stroke-width="1.51"/><path d="M1049,798L993,883L1121,936Z" fill="#cae9aa" stroke="#cae9aa" stroke-width="1.51"/><path d="M972,649L1049,704L1132,554Z" fill="#f3faab" stroke="#f3faab" stroke-width="1.51"/><path d="M1091,475L977,484L1132,554Z" fill="#fafab1" stroke="#fafab1" stroke-width="1.51"/><path d="M977,484L972,649L1132,554Z" fill="#fafdb6" stroke="#fafdb6" stroke-width="1.51"/><path d="M1075,177L1002,263L1077,304Z" fill="#fcd689" stroke="#fcd689" stroke-width="1.51"/><path d="M914,1159L973,1259L1082,1244Z" fill="#adb1b6" stroke="#adb1b6" stroke-width="1.51"/><path d="M1011,-104L1089,-39L1096,-129Z" fill="#e69e7b" stroke="#e69e7b" stroke-width="1.51"/><path d="M914,1159L1082,1244L1102,1109Z" fill="#a7bab7" stroke="#a7bab7" stroke-width="1.51"/><path d="M984,50L1075,177L1115,78Z" fill="#fbb978" stroke="#fbb978" stroke-width="1.51"/><path d="M1014,741L1049,798L1049,704Z" fill="#e4f4a7" stroke="#e4f4a7" stroke-width="1.51"/><path d="M1003,337L977,484L1091,475Z" fill="#fcf3a7" stroke="#fcf3a7" stroke-width="1.51"/><path d="M909,955L914,1159L1102,1109Z" fill="#aeceb9" stroke="#aeceb9" stroke-width="1.51"/><path d="M1011,-104L984,50L1089,-39Z" fill="#f0a77e" stroke="#f0a77e" stroke-width="1.51"/><path d="M934,3L984,50L1011,-104Z" fill="#f4a981" stroke="#f4a981" stroke-width="1.51"/><path d="M1002,263L1003,337L1077,304Z" fill="#fde093" stroke="#fde093" stroke-width="1.51"/><path d="M984,50L1002,263L1075,177Z" fill="#fec682" stroke="#fec682" stroke-width="1.51"/><path d="M984,50L891,251L1002,263Z" fill="#ffcc89" stroke="#ffcc89" stroke-width="1.51"/><path d="M1014,741L993,883L1049,798Z" fill="#d9f0ab" stroke="#d9f0ab" stroke-width="1.51"/><path d="M972,649L1014,741L1049,704Z" fill="#eff9a8" stroke="#eff9a8" stroke-width="1.51"/><path d="M112,-192L266,-143L670,-199Z" fill="#d2564c" stroke="#d2564c" stroke-width="1.51"/><path d="M909,955L824,1058L914,1159Z" fill="#b2cdb0" stroke="#b2cdb0" stroke-width="1.51"/><path d="M879,576L972,649L977,484Z" fill="#fdfdb9" stroke="#fdfdb9" stroke-width="1.51"/><path d="M830,108L891,251L984,50Z" fill="#ffbe7e" stroke="#ffbe7e" stroke-width="1.51"/><path d="M781,401L977,484L1003,337Z" fill="#ffefa3" stroke="#ffefa3" stroke-width="1.51"/><path d="M972,649L801,776L1014,741Z" fill="#edf6a9" stroke="#edf6a9" stroke-width="1.51"/><path d="M874,906L993,883L1014,741Z" fill="#d5eeb1" stroke="#d5eeb1" stroke-width="1.51"/><path d="M801,776L874,906L1014,741Z" fill="#dceda9" stroke="#dceda9" stroke-width="1.51"/><path d="M1002,263L891,251L1003,337Z" fill="#ffde95" stroke="#ffde95" stroke-width="1.51"/><path d="M874,-155L934,3L1011,-104Z" fill="#ec9f81" stroke="#ec9f81" stroke-width="1.51"/><path d="M891,251L781,401L1003,337Z" fill="#ffe195" stroke="#ffe195" stroke-width="1.51"/><path d="M874,906L909,955L993,883Z" fill="#c7e5ae" stroke="#c7e5ae" stroke-width="1.51"/><path d="M914,1159L857,1229L973,1259Z" fill="#afafb4" stroke="#afafb4" stroke-width="1.51"/><path d="M934,3L830,108L984,50Z" fill="#fcb07b" stroke="#fcb07b" stroke-width="1.51"/><path d="M879,576L801,776L972,649Z" fill="#f5f6a6" stroke="#f5f6a6" stroke-width="1.51"/><path d="M780,492L879,576L977,484Z" fill="#fff7b2" stroke="#fff7b2" stroke-width="1.51"/><path d="M781,401L780,492L977,484Z" fill="#ffefa4" stroke="#ffefa4" stroke-width="1.51"/><path d="M818,1033L824,1058L909,955Z" fill="#b7d5a9" stroke="#b7d5a9" stroke-width="1.51"/><path d="M874,-155L795,-2L934,3Z" fill="#f19f7b" stroke="#f19f7b" stroke-width="1.51"/><path d="M795,-2L830,108L934,3Z" fill="#f9aa76" stroke="#f9aa76" stroke-width="1.51"/><path d="M449,1184L231,1282L694,1226Z" fill="#b58589" stroke="#b58589" stroke-width="1.51"/><path d="M824,1058L857,1229L914,1159Z" fill="#abbab5" stroke="#abbab5" stroke-width="1.51"/><path d="M824,1058L731,1140L857,1229Z" fill="#abb7b0" stroke="#abb7b0" stroke-width="1.51"/><path d="M705,731L801,776L879,576Z" fill="#f2ef9a" stroke="#f2ef9a" stroke-width="1.51"/><path d="M724,566L705,731L879,576Z" fill="#f8f09f" stroke="#f8f09f" stroke-width="1.51"/><path d="M874,906L818,1033L909,955Z" fill="#bedda8" stroke="#bedda8" stroke-width="1.51"/><path d="M830,108L660,258L891,251Z" fill="#ffc57a" stroke="#ffc57a" stroke-width="1.51"/><path d="M660,258L781,401L891,251Z" fill="#ffd585" stroke="#ffd585" stroke-width="1.51"/><path d="M660,258L658,312L781,401Z" fill="#fed37f" stroke="#fed37f" stroke-width="1.51"/><path d="M801,776L703,852L874,906Z" fill="#d6e39f" stroke="#d6e39f" stroke-width="1.51"/><path d="M741,1024L818,1033L874,906Z" fill="#bad7a2" stroke="#bad7a2" stroke-width="1.51"/><path d="M668,-53L795,-2L874,-155Z" fill="#ec9771" stroke="#ec9771" stroke-width="1.51"/><path d="M780,492L724,566L879,576Z" fill="#fff4ac" stroke="#fff4ac" stroke-width="1.51"/><path d="M703,852L741,1024L874,906Z" fill="#c6da9e" stroke="#c6da9e" stroke-width="1.51"/><path d="M670,-199L668,-53L874,-155Z" fill="#df8b6b" stroke="#df8b6b" stroke-width="1.51"/><path d="M562,1180L449,1184L694,1226Z" fill="#b39895" stroke="#b39895" stroke-width="1.51"/><path d="M702,92L660,258L830,108Z" fill="#feb66d" stroke="#feb66d" stroke-width="1.51"/><path d="M731,1140L694,1226L857,1229Z" fill="#b0a9a6" stroke="#b0a9a6" stroke-width="1.51"/><path d="M763,480L780,492L781,401Z" fill="#ffea9c" stroke="#ffea9c" stroke-width="1.51"/><path d="M795,-2L702,92L830,108Z" fill="#fba96d" stroke="#fba96d" stroke-width="1.51"/><path d="M818,1033L741,1024L824,1058Z" fill="#b6cca5" stroke="#b6cca5" stroke-width="1.51"/><path d="M741,1024L731,1140L824,1058Z" fill="#b3c3a5" stroke="#b3c3a5" stroke-width="1.51"/><path d="M703,852L640,941L741,1024Z" fill="#c5d396" stroke="#c5d396" stroke-width="1.51"/><path d="M705,731L703,852L801,776Z" fill="#e1e497" stroke="#e1e497" stroke-width="1.51"/><path d="M668,-53L702,92L795,-2Z" fill="#f59e69" stroke="#f59e69" stroke-width="1.51"/><path d="M629,686L705,731L724,566Z" fill="#f5e892" stroke="#f5e892" stroke-width="1.51"/><path d="M763,480L724,566L780,492Z" fill="#ffeea3" stroke="#ffeea3" stroke-width="1.51"/><path d="M634,451L763,480L781,401Z" fill="#ffe595" stroke="#ffe595" stroke-width="1.51"/><path d="M658,312L634,451L781,401Z" fill="#fedc87" stroke="#fedc87" stroke-width="1.51"/><path d="M266,-143L433,-102L670,-199Z" fill="#d96a53" stroke="#d96a53" stroke-width="1.51"/><path d="M634,451L724,566L763,480Z" fill="#ffe99c" stroke="#ffe99c" stroke-width="1.51"/><path d="M555,1125L731,1140L741,1024Z" fill="#b2b69f" stroke="#b2b69f" stroke-width="1.51"/><path d="M640,941L555,1125L741,1024Z" fill="#b9c296" stroke="#b9c296" stroke-width="1.51"/><path d="M536,182L660,258L702,92Z" fill="#fdb167" stroke="#fdb167" stroke-width="1.51"/><path d="M668,-53L570,61L702,92Z" fill="#f69962" stroke="#f69962" stroke-width="1.51"/><path d="M562,1180L694,1226L731,1140Z" fill="#b0a49e" stroke="#b0a49e" stroke-width="1.51"/><path d="M555,1125L562,1180L731,1140Z" fill="#afa69d" stroke="#afa69d" stroke-width="1.51"/><path d="M576,841L703,852L705,731Z" fill="#dedb91" stroke="#dedb91" stroke-width="1.51"/><path d="M634,451L536,557L724,566Z" fill="#ffe49a" stroke="#ffe49a" stroke-width="1.51"/><path d="M536,557L629,686L724,566Z" fill="#fbe494" stroke="#fbe494" stroke-width="1.51"/><path d="M266,-143L367,-106L433,-102Z" fill="#dd604e" stroke="#dd604e" stroke-width="1.51"/><path d="M433,-102L557,-111L670,-199Z" fill="#dd775b" stroke="#dd775b" stroke-width="1.51"/><path d="M557,-111L668,-53L670,-199Z" fill="#e18262" stroke="#e18262" stroke-width="1.51"/><path d="M570,61L536,182L702,92Z" fill="#fca05e" stroke="#fca05e" stroke-width="1.51"/><path d="M576,841L640,941L703,852Z" fill="#d1d390" stroke="#d1d390" stroke-width="1.51"/><path d="M629,686L576,841L705,731Z" fill="#e8dd8c" stroke="#e8dd8c" stroke-width="1.51"/><path d="M555,346L634,451L658,312Z" fill="#fed27e" stroke="#fed27e" stroke-width="1.51"/><path d="M502,982L555,1125L640,941Z" fill="#bcbd8e" stroke="#bcbd8e" stroke-width="1.51"/><path d="M547,-22L570,61L668,-53Z" fill="#f28e5f" stroke="#f28e5f" stroke-width="1.51"/><path d="M557,-111L547,-22L668,-53Z" fill="#eb8561" stroke="#eb8561" stroke-width="1.51"/><path d="M536,557L505,631L629,686Z" fill="#fadb8b" stroke="#fadb8b" stroke-width="1.51"/><path d="M555,346L658,312L660,258Z" fill="#fec876" stroke="#fec876" stroke-width="1.51"/><path d="M536,182L555,346L660,258Z" fill="#febc6c" stroke="#febc6c" stroke-width="1.51"/><path d="M505,631L472,834L576,841Z" fill="#e7cf83" stroke="#e7cf83" stroke-width="1.51"/><path d="M505,631L576,841L629,686Z" fill="#efd885" stroke="#efd885" stroke-width="1.51"/><path d="M494,515L536,557L634,451Z" fill="#ffda90" stroke="#ffda90" stroke-width="1.51"/><path d="M576,841L502,982L640,941Z" fill="#cbc98b" stroke="#cbc98b" stroke-width="1.51"/><path d="M555,346L494,515L634,451Z" fill="#ffd484" stroke="#ffd484" stroke-width="1.51"/><path d="M421,673L472,834L505,631Z" fill="#f1ce7c" stroke="#f1ce7c" stroke-width="1.51"/><path d="M439,332L494,515L555,346Z" fill="#fec978" stroke="#fec978" stroke-width="1.51"/><path d="M536,182L470,185L555,346Z" fill="#feb264" stroke="#feb264" stroke-width="1.51"/><path d="M470,185L439,332L555,346Z" fill="#feb768" stroke="#feb768" stroke-width="1.51"/><path d="M502,982L440,1135L555,1125Z" fill="#b7a88e" stroke="#b7a88e" stroke-width="1.51"/><path d="M452,76L536,182L570,61Z" fill="#fa9656" stroke="#fa9656" stroke-width="1.51"/><path d="M472,834L502,982L576,841Z" fill="#d2c686" stroke="#d2c686" stroke-width="1.51"/><path d="M547,-22L452,76L570,61Z" fill="#f58c58" stroke="#f58c58" stroke-width="1.51"/><path d="M452,76L470,185L536,182Z" fill="#fb9b57" stroke="#fb9b57" stroke-width="1.51"/><path d="M433,-102L439,-30L547,-22Z" fill="#eb7a57" stroke="#eb7a57" stroke-width="1.51"/><path d="M433,-102L547,-22L557,-111Z" fill="#e77b5a" stroke="#e77b5a" stroke-width="1.51"/><path d="M555,1125L449,1184L562,1180Z" fill="#b29a93" stroke="#b29a93" stroke-width="1.51"/><path d="M439,332L392,485L494,515Z" fill="#ffc77c" stroke="#ffc77c" stroke-width="1.51"/><path d="M439,-30L452,76L547,-22Z" fill="#f18355" stroke="#f18355" stroke-width="1.51"/><path d="M440,1135L449,1184L555,1125Z" fill="#b29991" stroke="#b29991" stroke-width="1.51"/><path d="M472,834L389,889L502,982Z" fill="#d0be81" stroke="#d0be81" stroke-width="1.51"/><path d="M494,515L505,631L536,557Z" fill="#fed98f" stroke="#fed98f" stroke-width="1.51"/><path d="M332,925L297,1102L440,1135Z" fill="#bb9d81" stroke="#bb9d81" stroke-width="1.51"/><path d="M392,485L421,673L494,515Z" fill="#ffd08a" stroke="#ffd08a" stroke-width="1.51"/><path d="M332,925L440,1135L502,982Z" fill="#bead82" stroke="#bead82" stroke-width="1.51"/><path d="M494,515L421,673L505,631Z" fill="#fcd386" stroke="#fcd386" stroke-width="1.51"/><path d="M389,889L332,925L502,982Z" fill="#cbb67e" stroke="#cbb67e" stroke-width="1.51"/><path d="M340,195L439,332L470,185Z" fill="#fca55c" stroke="#fca55c" stroke-width="1.51"/><path d="M421,673L317,710L472,834Z" fill="#ecc478" stroke="#ecc478" stroke-width="1.51"/><path d="M392,485L292,629L421,673Z" fill="#fcc680" stroke="#fcc680" stroke-width="1.51"/><path d="M281,1170L231,1282L449,1184Z" fill="#b47881" stroke="#b47881" stroke-width="1.51"/><path d="M452,76L340,195L470,185Z" fill="#fa9354" stroke="#fa9354" stroke-width="1.51"/><path d="M317,710L389,889L472,834Z" fill="#e0be7b" stroke="#e0be7b" stroke-width="1.51"/><path d="M340,195L328,326L439,332Z" fill="#fca65f" stroke="#fca65f" stroke-width="1.51"/><path d="M433,-102L385,-51L439,-30Z" fill="#e97154" stroke="#e97154" stroke-width="1.51"/><path d="M328,326L392,485L439,332Z" fill="#feb96e" stroke="#feb96e" stroke-width="1.51"/><path d="M439,-30L385,-51L452,76Z" fill="#ef7952" stroke="#ef7952" stroke-width="1.51"/><path d="M385,-51L296,153L452,76Z" fill="#f47c4c" stroke="#f47c4c" stroke-width="1.51"/><path d="M296,153L340,195L452,76Z" fill="#f9894f" stroke="#f9894f" stroke-width="1.51"/><path d="M440,1135L281,1170L449,1184Z" fill="#b38b8a" stroke="#b38b8a" stroke-width="1.51"/><path d="M297,1102L281,1170L440,1135Z" fill="#b38a87" stroke="#b38a87" stroke-width="1.51"/><path d="M367,-106L385,-51L433,-102Z" fill="#e36952" stroke="#e36952" stroke-width="1.51"/><path d="M292,629L317,710L421,673Z" fill="#f5c175" stroke="#f5c175" stroke-width="1.51"/><path d="M266,239L328,326L340,195Z" fill="#fb9a58" stroke="#fb9a58" stroke-width="1.51"/><path d="M187,81L296,153L385,-51Z" fill="#f26f47" stroke="#f26f47" stroke-width="1.51"/><path d="M192,-35L187,81L385,-51Z" fill="#eb6048" stroke="#eb6048" stroke-width="1.51"/><path d="M317,710L332,925L389,889Z" fill="#dbb679" stroke="#dbb679" stroke-width="1.51"/><path d="M167,530L239,607L392,485Z" fill="#ffba80" stroke="#ffba80" stroke-width="1.51"/><path d="M220,354L167,530L392,485Z" fill="#ffb172" stroke="#ffb172" stroke-width="1.51"/><path d="M239,607L292,629L392,485Z" fill="#febf7e" stroke="#febf7e" stroke-width="1.51"/><path d="M328,326L220,354L392,485Z" fill="#fdb16a" stroke="#fdb16a" stroke-width="1.51"/><path d="M317,710L161,867L332,925Z" fill="#dcad74" stroke="#dcad74" stroke-width="1.51"/><path d="M367,-106L266,-143L385,-51Z" fill="#df5f4e" stroke="#df5f4e" stroke-width="1.51"/><path d="M266,-143L192,-35L385,-51Z" fill="#e35a4b" stroke="#e35a4b" stroke-width="1.51"/><path d="M256,693L161,867L317,710Z" fill="#e9af6f" stroke="#e9af6f" stroke-width="1.51"/><path d="M161,867L205,928L332,925Z" fill="#cfa373" stroke="#cfa373" stroke-width="1.51"/><path d="M205,928L297,1102L332,925Z" fill="#c2a276" stroke="#c2a276" stroke-width="1.51"/><path d="M296,153L266,239L340,195Z" fill="#f98d50" stroke="#f98d50" stroke-width="1.51"/><path d="M292,629L256,693L317,710Z" fill="#f5ba70" stroke="#f5ba70" stroke-width="1.51"/><path d="M266,239L220,354L328,326Z" fill="#fb9d5c" stroke="#fb9d5c" stroke-width="1.51"/><path d="M115,1048L187,1128L205,928Z" fill="#b88e7a" stroke="#b88e7a" stroke-width="1.51"/><path d="M205,928L187,1128L297,1102Z" fill="#ba8f7a" stroke="#ba8f7a" stroke-width="1.51"/><path d="M128,172L266,239L296,153Z" fill="#f7824d" stroke="#f7824d" stroke-width="1.51"/><path d="M187,1128L281,1170L297,1102Z" fill="#b38081" stroke="#b38081" stroke-width="1.51"/><path d="M239,607L256,693L292,629Z" fill="#f8b773" stroke="#f8b773" stroke-width="1.51"/><path d="M187,81L128,172L296,153Z" fill="#f37449" stroke="#f37449" stroke-width="1.51"/><path d="M187,1128L231,1282L281,1170Z" fill="#b2717d" stroke="#b2717d" stroke-width="1.51"/><path d="M68,776L161,867L256,693Z" fill="#e0a772" stroke="#e0a772" stroke-width="1.51"/><path d="M104,-71L192,-35L266,-143Z" fill="#dc4d4a" stroke="#dc4d4a" stroke-width="1.51"/><path d="M112,-192L104,-71L266,-143Z" fill="#d14349" stroke="#d14349" stroke-width="1.51"/><path d="M120,337L220,354L266,239Z" fill="#f8975c" stroke="#f8975c" stroke-width="1.51"/><path d="M128,172L120,337L266,239Z" fill="#f58a56" stroke="#f58a56" stroke-width="1.51"/><path d="M187,1128L124,1283L231,1282Z" fill="#b0657b" stroke="#b0657b" stroke-width="1.51"/><path d="M239,607L90,652L256,693Z" fill="#f4b172" stroke="#f4b172" stroke-width="1.51"/><path d="M90,652L68,776L256,693Z" fill="#eaaa6f" stroke="#eaaa6f" stroke-width="1.51"/><path d="M120,337L167,530L220,354Z" fill="#f8a36b" stroke="#f8a36b" stroke-width="1.51"/><path d="M167,530L90,652L239,607Z" fill="#f6b07a" stroke="#f6b07a" stroke-width="1.51"/><path d="M114,926L115,1048L205,928Z" fill="#bf9776" stroke="#bf9776" stroke-width="1.51"/><path d="M120,337L59,507L167,530Z" fill="#f6a575" stroke="#f6a575" stroke-width="1.51"/><path d="M104,-71L187,81L192,-35Z" fill="#e5564a" stroke="#e5564a" stroke-width="1.51"/><path d="M161,867L114,926L205,928Z" fill="#ca9d75" stroke="#ca9d75" stroke-width="1.51"/><path d="M10,1121L124,1283L187,1128Z" fill="#aa6b80" stroke="#aa6b80" stroke-width="1.51"/><path d="M104,-71L0,5L187,81Z" fill="#e1524b" stroke="#e1524b" stroke-width="1.51"/><path d="M0,5L84,148L187,81Z" fill="#e95c48" stroke="#e95c48" stroke-width="1.51"/><path d="M84,148L128,172L187,81Z" fill="#ee6d4b" stroke="#ee6d4b" stroke-width="1.51"/><path d="M115,1048L10,1121L187,1128Z" fill="#ad7b80" stroke="#ad7b80" stroke-width="1.51"/><path d="M59,507L90,652L167,530Z" fill="#f5ab80" stroke="#f5ab80" stroke-width="1.51"/><path d="M84,148L120,337L128,172Z" fill="#f07e54" stroke="#f07e54" stroke-width="1.51"/><path d="M52,900L114,926L161,867Z" fill="#c99a76" stroke="#c99a76" stroke-width="1.51"/><path d="M68,776L52,900L161,867Z" fill="#d09d76" stroke="#d09d76" stroke-width="1.51"/><path d="M-56,-190L104,-71L112,-192Z" fill="#c7354a" stroke="#c7354a" stroke-width="1.51"/><path d="M114,926L52,900L115,1048Z" fill="#bd9476" stroke="#bd9476" stroke-width="1.51"/><path d="M52,900L-62,979L115,1048Z" fill="#b78e78" stroke="#b78e78" stroke-width="1.51"/><path d="M-32,449L59,507L120,337Z" fill="#f19c72" stroke="#f19c72" stroke-width="1.51"/><path d="M84,148L-69,333L120,337Z" fill="#ee835c" stroke="#ee835c" stroke-width="1.51"/><path d="M10,1121L-94,1222L124,1283Z" fill="#a45d7f" stroke="#a45d7f" stroke-width="1.51"/><path d="M-94,1222L-150,1281L124,1283Z" fill="#9e4b79" stroke="#9e4b79" stroke-width="1.51"/><path d="M-95,175L-69,333L84,148Z" fill="#e57256" stroke="#e57256" stroke-width="1.51"/><path d="M-69,333L-32,449L120,337Z" fill="#ec916a" stroke="#ec916a" stroke-width="1.51"/><path d="M-62,979L10,1121L115,1048Z" fill="#ad7f7d" stroke="#ad7f7d" stroke-width="1.51"/><path d="M59,507L-73,559L90,652Z" fill="#f0a580" stroke="#f0a580" stroke-width="1.51"/><path d="M-74,732L68,776L90,652Z" fill="#e1a073" stroke="#e1a073" stroke-width="1.51"/><path d="M-56,-190L0,5L104,-71Z" fill="#d13b4e" stroke="#d13b4e" stroke-width="1.51"/><path d="M0,5L-89,76L84,148Z" fill="#e2534a" stroke="#e2534a" stroke-width="1.51"/><path d="M-73,559L-74,732L90,652Z" fill="#e59f76" stroke="#e59f76" stroke-width="1.51"/><path d="M-75,846L52,900L68,776Z" fill="#cc9778" stroke="#cc9778" stroke-width="1.51"/><path d="M-89,76L-95,175L84,148Z" fill="#e15e4d" stroke="#e15e4d" stroke-width="1.51"/><path d="M-74,732L-75,846L68,776Z" fill="#d19775" stroke="#d19775" stroke-width="1.51"/><path d="M-56,-190L-135,-58L0,5Z" fill="#c8334c" stroke="#c8334c" stroke-width="1.51"/><path d="M-32,449L-73,559L59,507Z" fill="#ed9e7e" stroke="#ed9e7e" stroke-width="1.51"/><path d="M-75,846L-62,979L52,900Z" fill="#bc8e77" stroke="#bc8e77" stroke-width="1.51"/><path d="M-113,137L-95,175L-89,76Z" fill="#d9574b" stroke="#d9574b" stroke-width="1.51"/><path d="M-150,618L-74,732L-73,559Z" fill="#dc9876" stroke="#dc9876" stroke-width="1.51"/><path d="M-62,979L-138,1048L10,1121Z" fill="#a4787b" stroke="#a4787b" stroke-width="1.51"/><path d="M-138,1048L-94,1222L10,1121Z" fill="#9a6782" stroke="#9a6782" stroke-width="1.51"/><path d="M-135,-58L-89,76L0,5Z" fill="#d2414a" stroke="#d2414a" stroke-width="1.51"/><path d="M-200,491L-73,559L-32,449Z" fill="#e3967b" stroke="#e3967b" stroke-width="1.51"/><path d="M-174,390L-200,491L-32,449Z" fill="#de8d71" stroke="#de8d71" stroke-width="1.51"/><path d="M-69,333L-174,390L-32,449Z" fill="#e18c6a" stroke="#e18c6a" stroke-width="1.51"/><path d="M-209,766L-214,799L-75,846Z" fill="#be8971" stroke="#be8971" stroke-width="1.51"/><path d="M-209,766L-75,846L-74,732Z" fill="#c78f72" stroke="#c78f72" stroke-width="1.51"/><path d="M-95,175L-202,219L-69,333Z" fill="#db6f56" stroke="#db6f56" stroke-width="1.51"/><path d="M-75,846L-210,949L-62,979Z" fill="#af8574" stroke="#af8574" stroke-width="1.51"/><path d="M-211,-141L-135,-58L-56,-190Z" fill="#b72448" stroke="#b72448" stroke-width="1.51"/><path d="M-210,949L-138,1048L-62,979Z" fill="#a27e74" stroke="#a27e74" stroke-width="1.51"/><path d="M-150,618L-209,766L-74,732Z" fill="#d0926f" stroke="#d0926f" stroke-width="1.51"/><path d="M-202,219L-174,390L-69,333Z" fill="#d97a5e" stroke="#d97a5e" stroke-width="1.51"/><path d="M-214,799L-210,949L-75,846Z" fill="#b48572" stroke="#b48572" stroke-width="1.51"/><path d="M-200,491L-150,618L-73,559Z" fill="#de967e" stroke="#de967e" stroke-width="1.51"/><path d="M-138,1048L-150,1281L-94,1222Z" fill="#93577d" stroke="#93577d" stroke-width="1.51"/><path d="M-135,-58L-113,137L-89,76Z" fill="#d24648" stroke="#d24648" stroke-width="1.51"/><path d="M-135,-58L-202,219L-113,137Z" fill="#d24a47" stroke="#d24a47" stroke-width="1.51"/><path d="M-113,137L-202,219L-95,175Z" fill="#d75f4f" stroke="#d75f4f" stroke-width="1.51"/><path d="M-211,-141L-202,219L-135,-58Z" fill="#c53748" stroke="#c53748" stroke-width="1.51"/><path d="M-210,949L-150,1281L-138,1048Z" fill="#93677b" stroke="#93677b" stroke-width="1.51"/><path d="M-200,491L-209,766L-150,618Z" fill="#d39074" stroke="#d39074" stroke-width="1.51"/><path d="M-202,219L-200,491L-174,390Z" fill="#d57f64" stroke="#d57f64" stroke-width="1.51"/><path d="M-202,219L-214,799L-200,491Z" fill="#d68d78" stroke="#d68d78" stroke-width="1.51"/><path d="M-214,799L-209,766L-200,491Z" fill="#cc8d6d" stroke="#cc8d6d" stroke-width="1.51"/><path d="M-211,-141L-214,799L-202,219Z" fill="#d2715a" stroke="#d2715a" stroke-width="1.51"/></svg>
