<!-- Generator: Adobe Illustrator 19.2.1, SVG Export Plug-In  -->
<svg id="surface" version="1.1"
	 xmlns="http://www.w3.org/2000/svg" xmlns:xlink="http://www.w3.org/1999/xlink" xmlns:a="http://ns.adobe.com/AdobeSVGViewerExtensions/3.0/" viewBox="0 0 250 50">
<g class="name" stroke-width="10" stroke-miterlimit="5">
	<g class="letter">
<path fill="none" d="M 13.652 29.707 L 13.652 43.359 L 0 43.359 A 3032.655 3032.655 0 0 1 0.029 30 Q 0.059 23.35 0.117 16.582 A 290.738 290.738 0 0 0 0.156 11.817 A 290.712 290.712 0 0 0 0.146 9.434 A 124.739 124.739 0 0 1 0.142 8.411 A 127.953 127.953 0 0 1 0.293 2.227 A 54.394 54.394 0 0 1 7.793 0.557 Q 11.543 0 15.527 0 A 28.113 28.113 0 0 1 20.039 0.366 Q 22.295 0.733 24.36 1.524 A 19.245 19.245 0 0 1 28.198 3.501 A 13.207 13.207 0 0 1 31.26 6.328 A 13.039 13.039 0 0 1 33.188 9.771 A 14.749 14.749 0 0 1 33.296 10.064 A 12.713 12.713 0 0 1 33.933 12.845 A 16.31 16.31 0 0 1 34.043 14.766 A 16.204 16.204 0 0 1 33.844 17.367 A 12.151 12.151 0 0 1 33.193 19.805 A 12.477 12.477 0 0 1 31.354 23.062 A 11.623 11.623 0 0 1 30.864 23.643 A 14.044 14.044 0 0 1 27.393 26.426 Q 25.4 27.568 23.13 28.286 A 28.586 28.586 0 0 1 18.428 29.341 A 38.264 38.264 0 0 1 13.652 29.707 Z M 14.355 12.07 L 14.004 20.625 A 5.752 5.752 0 0 0 14.627 20.681 A 5.08 5.08 0 0 0 14.795 20.684 L 15.586 20.684 A 5.993 5.993 0 0 0 17.622 20.332 A 5.441 5.441 0 0 0 19.365 19.321 A 5.077 5.077 0 0 0 20.581 17.769 A 4.207 4.207 0 0 0 21.013 16.238 A 5.131 5.131 0 0 0 21.035 15.762 A 5.04 5.04 0 0 0 20.892 14.526 A 3.464 3.464 0 0 0 19.878 12.788 A 3.96 3.96 0 0 0 17.807 11.794 A 5.532 5.532 0 0 0 16.875 11.719 Q 16.26 11.719 15.601 11.821 A 14.631 14.631 0 0 0 14.691 11.991 A 12.6 12.6 0 0 0 14.355 12.07 Z" vector-effect="non-scaling-stroke"/>
	</g>
	<g class="letter">
		<path fill="none" d="M 69.492 1.758 L 70.43 41.777 L 55.781 42.481 L 55.664 30.117 L 48.926 30.117 L 48.516 42.949 L 35.391 42.949 L 36.504 1.758 L 50.449 2.402 L 49.57 23.438 L 56.074 23.438 L 56.133 1.406 L 69.492 1.758 Z" vector-effect="non-scaling-stroke"/>
		<path fill="none" d="M 109.424 20.508 Q 109.424 23.174 108.809 25.65 A 20.125 20.125 0 0 1 107.036 30.293 A 19.224 19.224 0 0 1 104.224 34.263 A 17.903 17.903 0 0 1 100.503 37.354 A 18.154 18.154 0 0 1 96.006 39.36 Q 93.574 40.078 90.85 40.078 A 18.577 18.577 0 0 1 86.313 39.534 A 17.256 17.256 0 0 1 85.825 39.404 Q 83.438 38.731 81.357 37.515 A 17.97 17.97 0 0 1 77.593 34.585 Q 75.908 32.871 74.722 30.776 A 19.615 19.615 0 0 1 72.876 26.279 A 18.848 18.848 0 0 1 72.217 21.27 Q 72.217 18.721 72.832 16.275 A 20.242 20.242 0 0 1 74.604 11.66 Q 75.762 9.492 77.402 7.676 Q 79.043 5.859 81.079 4.541 A 17.642 17.642 0 0 1 85.488 2.49 A 16.788 16.788 0 0 1 90.169 1.761 A 18.808 18.808 0 0 1 90.498 1.758 A 23.771 23.771 0 0 1 95.16 2.199 A 19.682 19.682 0 0 1 98.247 3.076 A 17.3 17.3 0 0 1 102.836 5.621 A 15.885 15.885 0 0 1 104.224 6.841 A 16.664 16.664 0 0 1 107.796 12.117 A 19.321 19.321 0 0 1 108.062 12.759 A 19.666 19.666 0 0 1 109.277 17.788 A 24.566 24.566 0 0 1 109.424 20.508 Z M 96.416 21.27 A 8.248 8.248 0 0 0 96.05 18.823 A 6.841 6.841 0 0 0 95.237 17.077 A 6.315 6.315 0 0 0 94.98 16.714 A 5.481 5.481 0 0 0 93.237 15.22 Q 92.197 14.649 90.85 14.649 A 6.516 6.516 0 0 0 89.479 14.787 A 5.237 5.237 0 0 0 88.389 15.147 Q 87.305 15.645 86.528 16.509 Q 85.752 17.373 85.342 18.53 A 7.268 7.268 0 0 0 84.932 20.977 A 8.921 8.921 0 0 0 85.283 23.438 A 7.311 7.311 0 0 0 86.338 25.664 Q 87.041 26.66 88.081 27.275 A 4.408 4.408 0 0 0 89.79 27.847 A 5.618 5.618 0 0 0 90.498 27.891 A 6.011 6.011 0 0 0 91.959 27.719 A 5.055 5.055 0 0 0 92.974 27.349 A 5.585 5.585 0 0 0 94.834 25.884 A 6.674 6.674 0 0 0 95.967 23.872 A 7.562 7.562 0 0 0 96.006 23.76 Q 96.416 22.559 96.416 21.27 Z" vector-effect="non-scaling-stroke"/>
		</g>
		<g class="letter">
		<path fill="none" d="M 140.361 27.129 L 138.955 40.43 Q 137.813 41.309 136.479 41.924 Q 135.146 42.539 133.711 42.92 Q 132.275 43.301 130.811 43.477 A 24.088 24.088 0 0 1 127.939 43.652 A 18.537 18.537 0 0 1 124.834 43.402 A 15.098 15.098 0 0 1 122.637 42.861 A 15.616 15.616 0 0 1 118.286 40.65 Q 116.338 39.229 114.873 37.295 A 19.604 19.604 0 0 1 112.441 33.076 A 24.357 24.357 0 0 1 110.977 28.242 A 26.824 26.824 0 0 1 110.479 23.086 A 30.246 30.246 0 0 1 110.977 17.637 A 27.167 27.167 0 0 1 112.485 12.393 A 22.272 22.272 0 0 1 115.034 7.72 A 18.247 18.247 0 0 1 118.623 3.955 Q 120.674 2.344 123.267 1.436 A 16.136 16.136 0 0 1 126.995 0.625 A 19.93 19.93 0 0 1 128.994 0.527 A 16.478 16.478 0 0 1 131.784 0.755 A 13.386 13.386 0 0 1 133.755 1.245 A 13.565 13.565 0 0 1 136.833 2.706 A 12.383 12.383 0 0 1 137.593 3.237 A 13.716 13.716 0 0 1 140.522 6.27 A 17.502 17.502 0 0 1 142.573 10.122 A 23.032 23.032 0 0 1 143.774 14.546 A 28.212 28.212 0 0 1 144.17 19.277 A 37.266 37.266 0 0 1 143.818 24.375 A 125.599 125.599 0 0 0 133.857 25.415 A 3450.903 3450.903 0 0 1 123.955 26.836 A 7.767 7.767 0 0 0 125.122 28.988 A 6.884 6.884 0 0 0 126.343 30.205 A 6.006 6.006 0 0 0 129.637 31.443 A 7.657 7.657 0 0 0 130.225 31.465 Q 131.361 31.465 132.704 31.052 A 11.939 11.939 0 0 0 132.788 31.025 Q 134.18 30.586 135.557 29.927 A 30.769 30.769 0 0 0 138.193 28.506 Q 139.158 27.923 139.916 27.425 A 35.648 35.648 0 0 0 140.361 27.129 Z M 132.451 18.399 L 132.451 17.754 A 8.318 8.318 0 0 0 132.319 16.298 A 9.35 9.35 0 0 0 132.275 16.069 Q 132.1 15.205 131.704 14.502 A 3.486 3.486 0 0 0 130.664 13.345 Q 130.02 12.891 129.053 12.891 A 3.691 3.691 0 0 0 127.775 13.107 A 3.374 3.374 0 0 0 126.987 13.521 A 6.087 6.087 0 0 0 125.449 15.103 A 9.57 9.57 0 0 0 124.395 17.168 A 18.388 18.388 0 0 0 124.038 18.229 A 13.375 13.375 0 0 0 123.779 19.219 L 132.451 18.399 Z" vector-effect="non-scaling-stroke"/>
	</g>
	<g class="letter">
		<path fill="none" d="M 182.139 41.192 L 165.264 40.899 A 238.499 238.499 0 0 0 166.787 30.542 A 84.36 84.36 0 0 0 167.432 20.098 A 15.148 15.148 0 0 0 167.43 19.878 Q 167.424 19.504 167.402 18.867 A 33.851 33.851 0 0 0 167.362 18.022 Q 167.336 17.58 167.297 17.089 A 55.819 55.819 0 0 0 167.285 16.948 A 36.738 36.738 0 0 0 167.056 14.892 A 40.217 40.217 0 0 0 167.036 14.751 A 15.979 15.979 0 0 0 166.818 13.542 A 12.699 12.699 0 0 0 166.597 12.686 A 7.757 7.757 0 0 0 166.371 12.03 Q 166.17 11.523 165.923 11.148 Q 165.645 10.726 165.288 10.6 A 0.949 0.949 0 0 0 164.971 10.547 A 2.808 2.808 0 0 0 164.104 10.676 A 2.376 2.376 0 0 0 163.286 11.133 A 4.369 4.369 0 0 0 162.434 12.123 A 5.426 5.426 0 0 0 162.144 12.642 A 8.884 8.884 0 0 0 161.63 13.948 A 10.867 10.867 0 0 0 161.426 14.707 Q 161.162 15.85 161.03 16.992 Q 160.898 18.135 160.854 19.146 A 63.569 63.569 0 0 0 160.835 19.628 Q 160.811 20.317 160.811 20.801 Q 160.664 25.986 160.576 31.099 Q 160.488 36.211 160.342 41.426 L 145.4 42.07 A 5662.36 5662.36 0 0 0 146.528 21.504 Q 147.07 11.279 147.393 0.938 L 161.221 0.234 L 161.104 4.922 A 18.902 18.902 0 0 1 162.876 3.047 Q 163.828 2.168 164.912 1.538 Q 165.996 0.908 167.212 0.542 A 8.787 8.787 0 0 1 169.607 0.177 A 9.83 9.83 0 0 1 169.775 0.176 A 12.793 12.793 0 0 1 171.966 0.355 A 9.436 9.436 0 0 1 174.141 0.996 A 9.908 9.908 0 0 1 177.363 3.223 A 12.154 12.154 0 0 1 179.263 5.846 A 14.112 14.112 0 0 1 179.619 6.548 Q 180.527 8.467 181.084 10.635 A 35.861 35.861 0 0 1 181.896 14.867 A 39.37 39.37 0 0 1 181.934 15.161 Q 182.227 17.52 182.329 19.805 A 100.016 100.016 0 0 1 182.43 23.692 A 90.375 90.375 0 0 1 182.432 24.229 L 182.432 28.125 Q 182.432 31.436 182.358 34.673 Q 182.285 37.91 182.139 41.192 Z" vector-effect="non-scaling-stroke"/>
		</g>
		<g class="letter">
		<path fill="none" d="M 184.893 2.52 L 200.479 1.699 L 198.428 41.602 L 186.064 42.246 L 184.893 2.52 Z" vector-effect="non-scaling-stroke"/>
	</g>
	<g class="letter">
		<path fill="none" d="M 224.473 1.406 L 238.301 3.047 L 226.875 21.738 L 237.188 38.438 L 224.941 42.246 L 219.082 30.879 L 212.871 42.891 L 200.215 38.32 L 210.996 21.328 L 201.152 4.629 L 214.57 1.406 L 219.375 12.012 L 224.473 1.406 Z" vector-effect="non-scaling-stroke"/>
  </g>
</g>
</svg>
